<svg width="233" height="73" viewBox="0 0 233 73" fill="none" xmlns="http://www.w3.org/2000/svg">
<path d="M66.752 17.584H87.136C91.4293 17.584 94.6587 18.648 96.824 20.776C98.9893 22.8667 100.072 25.816 100.072 29.624C100.072 35 97.832 38.584 93.352 40.376L101.192 56H92.4L85.624 41.664H74.872V56H66.752V17.584ZM86.408 34.888C88.1627 34.888 89.5067 34.4214 90.44 33.488C91.3733 32.5547 91.84 31.2667 91.84 29.624C91.84 27.9814 91.3733 26.712 90.44 25.816C89.5067 24.92 88.1627 24.472 86.408 24.472H74.872V34.888H86.408Z" fill="white"/>
<path d="M107.334 15.512H115.006V22.792H107.334V15.512ZM107.334 26.544H115.006V56H107.334V26.544Z" fill="white"/>
<path d="M130.872 56.672C128.109 56.672 126.131 55.9254 124.936 54.432C123.741 52.9387 123.144 51.0534 123.144 48.776V32.816H119.616V26.544H123.312L124.6 18.256H130.816V26.544H135.912V32.816H130.816V47.992C130.816 49.5974 131.619 50.4 133.224 50.4H135.912V55.776C135.277 56 134.475 56.2054 133.504 56.392C132.571 56.5787 131.693 56.672 130.872 56.672Z" fill="white"/>
<path d="M141.624 26.544H148.176L148.736 30.408H149.128C151.294 27.384 154.094 25.872 157.528 25.872C161.262 25.872 163.838 27.384 165.256 30.408H165.704C167.944 27.384 170.856 25.872 174.44 25.872C177.24 25.872 179.462 26.6934 181.104 28.336C182.784 29.9787 183.624 32.6107 183.624 36.232V56H175.952V37.856C175.952 34.384 174.515 32.648 171.64 32.648C170.147 32.648 168.915 33.264 167.944 34.496C166.974 35.6907 166.488 37.184 166.488 38.976V56H158.816V37.856C158.816 34.384 157.379 32.648 154.504 32.648C153.011 32.648 151.76 33.264 150.752 34.496C149.782 35.6907 149.296 37.184 149.296 38.976V56H141.624V26.544Z" fill="white"/>
<path d="M191.334 15.512H199.006V22.792H191.334V15.512ZM191.334 26.544H199.006V56H191.334V26.544Z" fill="white"/>
<path d="M219.184 56.672C214.48 56.672 210.952 55.4214 208.6 52.92C206.285 50.4187 205.128 46.536 205.128 41.272C205.128 36.0454 206.285 32.1814 208.6 29.68C210.952 27.1414 214.48 25.872 219.184 25.872C223.104 25.872 226.221 26.88 228.536 28.896C230.888 30.8747 232.064 33.7867 232.064 37.632H224.336C224.336 35.84 223.869 34.4587 222.936 33.488C222.003 32.5174 220.696 32.032 219.016 32.032C216.925 32.032 215.376 32.7787 214.368 34.272C213.397 35.728 212.912 37.912 212.912 40.824V41.72C212.912 44.632 213.416 46.8347 214.424 48.328C215.469 49.784 217.131 50.512 219.408 50.512C221.013 50.512 222.283 50.0267 223.216 49.056C224.187 48.048 224.672 46.6667 224.672 44.912H232.064C232.064 48.7574 230.907 51.688 228.592 53.704C226.277 55.6827 223.141 56.672 219.184 56.672Z" fill="white"/>
<rect width="52.3246" height="33.3725" rx="4" transform="matrix(5.31263e-08 1 0.811042 -0.584988 19.8683 19.9747)" fill="white" fill-opacity="0.6"/>
<rect width="52.4296" height="33.4547" rx="4" transform="matrix(5.31263e-08 1 0.811042 -0.584988 9.73511 19.5706)" fill="white" fill-opacity="0.8"/>
<rect width="52.3246" height="32.9639" rx="4" transform="matrix(5.31263e-08 1 0.811042 -0.584988 0 19.7357)" fill="white"/>
</svg>
